<?xml version="1.0" encoding="UTF-8" standalone="no"?>
<svg
   xmlns:dc="http://purl.org/dc/elements/1.1/"
   xmlns:cc="http://creativecommons.org/ns#"
   xmlns:rdf="http://www.w3.org/1999/02/22-rdf-syntax-ns#"
   xmlns:svg="http://www.w3.org/2000/svg"
   xmlns="http://www.w3.org/2000/svg"
   version="1.1"
   id="svg2"
   viewBox="0 0 26 26"
   height="26"
   width="26">
  <defs
     id="defs4" />
  <metadata
     id="metadata7">
    <rdf:RDF>
      <cc:Work
         rdf:about="">
        <dc:format>image/svg+xml</dc:format>
        <dc:type
           rdf:resource="http://purl.org/dc/dcmitype/StillImage" />
        <dc:title></dc:title>
      </cc:Work>
    </rdf:RDF>
  </metadata>
  <g
     transform="translate(0,-1026.3622)"
     id="layer1">
    <path
       id="path4136"
       transform="translate(0,1026.3622)"
       d="M 13 0 A 13 13 0 0 0 0 13 A 13 13 0 0 0 13 26 A 13 13 0 0 0 26 13 A 13 13 0 0 0 13 0 z M 8.7324219 5.4492188 L 13 9.7167969 L 17.267578 5.4492188 L 20.550781 8.7324219 L 16.283203 13 L 20.550781 17.267578 L 17.267578 20.550781 L 13 16.283203 L 8.7324219 20.550781 L 5.4492188 17.267578 L 9.7167969 13 L 5.4492188 8.7324219 L 8.7324219 5.4492188 z "
       style="opacity:1;fill:#8e8e8e;fill-opacity:1;stroke:none;stroke-width:16;stroke-miterlimit:4;stroke-dasharray:none;stroke-opacity:1" />
  </g>
</svg>
