<?xml version="1.0" encoding="UTF-8" standalone="no"?>
<svg
   xmlns:dc="http://purl.org/dc/elements/1.1/"
   xmlns:cc="http://creativecommons.org/ns#"
   xmlns:rdf="http://www.w3.org/1999/02/22-rdf-syntax-ns#"
   xmlns:svg="http://www.w3.org/2000/svg"
   xmlns="http://www.w3.org/2000/svg"
   version="1.1"
   id="svg2"
   width="26pt"
   viewBox="0 -1 26.033903 26"
   height="26pt">
  <metadata
     id="metadata12">
    <rdf:RDF>
      <cc:Work
         rdf:about="">
        <dc:format>image/svg+xml</dc:format>
        <dc:type
           rdf:resource="http://purl.org/dc/dcmitype/StillImage" />
        <dc:title></dc:title>
      </cc:Work>
    </rdf:RDF>
  </metadata>
  <defs
     id="defs10" />
  <path
     id="path6"
     transform="matrix(0.80104315,0,0,0.80104315,0,-1.0169517)"
     d="M 24.884766 2.4414062 C 23.800511 2.4414062 22.715953 2.8543594 21.888672 3.6816406 L 5.0917969 20.478516 C 4.9766857 20.593653 4.8930058 20.735914 4.8496094 20.892578 L 2.6425781 28.867188 C 2.5517403 29.194127 2.6430337 29.543055 2.8828125 29.783203 C 3.1229612 30.022983 3.4738412 30.11586 3.8007812 30.025391 L 11.773438 27.816406 C 11.930104 27.773027 12.074345 27.689324 12.189453 27.574219 L 28.984375 10.777344 C 30.636365 9.1216778 30.636365 6.4427756 28.984375 4.7871094 L 27.880859 3.6816406 C 27.053577 2.8543594 25.96902 2.4414062 24.884766 2.4414062 z M 24.884766 4.3242188 C 25.487068 4.3242188 26.08931 4.5541528 26.548828 5.0136719 L 27.654297 6.1171875 C 28.571863 7.0373286 28.571863 8.5274922 27.654297 9.4472656 L 26.654297 10.445312 L 22.220703 6.0117188 L 23.220703 5.0136719 C 23.680223 4.5541528 24.282463 4.3242188 24.884766 4.3242188 z M 6.2578125 22.867188 L 9.8007812 26.408203 L 4.9003906 27.765625 L 6.2578125 22.867188 z "
     style="stroke:none;fill:#8e8e8e;fill-opacity:1" />
  <g
     transform="matrix(0.80104315,0,0,0.80104315,127.9878,-876.56747)"
     id="g4185">
    <g
       id="g4141">
      <g
         id="g4143">
        <path
           d="m 396.283,257.097 c -1.14,-0.575 -2.282,-0.862 -3.433,-0.862 -2.478,0 -4.661,0.951 -6.563,2.857 l -18.274,18.271 c -1.708,1.715 -2.566,3.806 -2.566,6.283 l 0,72.513 c 0,12.565 -4.463,23.314 -13.415,32.264 -8.945,8.945 -19.701,13.418 -32.264,13.418 l -237.542,0 c -12.564,0 -23.319,-4.473 -32.264,-13.418 -8.947,-8.949 -13.418,-19.698 -13.418,-32.264 l 0,-237.537 c 0,-12.562 4.471,-23.316 13.418,-32.264 8.945,-8.946 19.7,-13.418 32.264,-13.418 l 237.544,0 c 4.188,0 8.47,0.571 12.847,1.714 1.143,0.378 1.999,0.571 2.563,0.571 2.478,0 4.668,-0.949 6.57,-2.852 l 13.99,-13.99 c 2.282,-2.281 3.142,-5.043 2.566,-8.276 -0.571,-3.046 -2.286,-5.236 -5.141,-6.567 -10.272,-4.752 -21.412,-7.139 -33.403,-7.139 l -237.536,0 c -22.65,0 -42.018,8.042 -58.102,24.126 C 8.042,76.613 0,95.978 0,118.629 l 0,237.543 c 0,22.647 8.042,42.014 24.125,58.098 16.084,16.088 35.452,24.13 58.102,24.13 l 237.541,0 c 22.647,0 42.017,-8.042 58.101,-24.13 16.085,-16.084 24.134,-35.45 24.134,-58.098 l 0,-90.797 c -0.002,-3.994 -1.915,-6.752 -5.72,-8.278 z"
           id="path4145" />
        <path
           d="M 467.95,93.216 436.541,61.807 c -4.568,-4.567 -9.996,-6.851 -16.279,-6.851 -6.275,0 -11.707,2.284 -16.271,6.851 L 219.265,246.532 144.181,171.443 c -4.569,-4.57 -9.995,-6.851 -16.274,-6.851 -6.28,0 -11.704,2.281 -16.274,6.851 l -31.405,31.405 c -4.568,4.568 -6.854,9.994 -6.854,16.277 0,6.28 2.286,11.704 6.854,16.274 l 122.767,122.767 c 4.569,4.571 9.995,6.851 16.274,6.851 6.279,0 11.704,-2.279 16.274,-6.851 L 467.947,125.763 c 4.565,-4.567 6.854,-9.994 6.854,-16.274 0,-6.28 -2.283,-11.706 -6.851,-16.273 z"
           id="path4147" />
      </g>
    </g>
    <g
       id="g4149" />
    <g
       id="g4151" />
    <g
       id="g4153" />
    <g
       id="g4155" />
    <g
       id="g4157" />
    <g
       id="g4159" />
    <g
       id="g4161" />
    <g
       id="g4163" />
    <g
       id="g4165" />
    <g
       id="g4167" />
    <g
       id="g4169" />
    <g
       id="g4171" />
    <g
       id="g4173" />
    <g
       id="g4175" />
    <g
       id="g4177" />
  </g>
  <g
     id="layer1"
     transform="matrix(0.80104315,0,0,0.80104315,37.106877,-820.73428)">
    <path
       style="opacity:1;fill:#ff1818;fill-opacity:1;stroke:none;stroke-width:16;stroke-miterlimit:4;stroke-dasharray:none;stroke-opacity:1"
       d="M 13,0 A 13,13 0 0 0 0,13 13,13 0 0 0 13,26 13,13 0 0 0 26,13 13,13 0 0 0 13,0 Z M 8.7324219,5.4492188 13,9.7167969 17.267578,5.4492188 20.550781,8.7324219 16.283203,13 20.550781,17.267578 17.267578,20.550781 13,16.283203 8.7324219,20.550781 5.4492188,17.267578 9.7167969,13 5.4492188,8.7324219 8.7324219,5.4492188 Z"
       transform="translate(0,1026.3622)"
       id="path4136" />
  </g>
  <g
     transform="matrix(0.80104315,0,0,0.80104315,44.325166,-849.06221)"
     id="layer1-5">
    <path
       id="path4136-3"
       transform="translate(0,1026.3622)"
       d="M 13,0 A 13,13 0 0 0 0,13 13,13 0 0 0 13,26 13,13 0 0 0 26,13 13,13 0 0 0 13,0 Z M 8.7324219,5.4492188 13,9.7167969 17.267578,5.4492188 20.550781,8.7324219 16.283203,13 20.550781,17.267578 17.267578,20.550781 13,16.283203 8.7324219,20.550781 5.4492188,17.267578 9.7167969,13 5.4492188,8.7324219 8.7324219,5.4492188 Z"
       style="opacity:1;fill:#8e8e8e;fill-opacity:1;stroke:none;stroke-width:16;stroke-miterlimit:4;stroke-dasharray:none;stroke-opacity:1" />
  </g>
</svg>
