<?xml version="1.0" encoding="UTF-8" standalone="no"?>
<!-- Generator: Adobe Illustrator 19.0.0, SVG Export Plug-In . SVG Version: 6.00 Build 0)  -->

<svg
   xmlns:dc="http://purl.org/dc/elements/1.1/"
   xmlns:cc="http://creativecommons.org/ns#"
   xmlns:rdf="http://www.w3.org/1999/02/22-rdf-syntax-ns#"
   xmlns:svg="http://www.w3.org/2000/svg"
   xmlns="http://www.w3.org/2000/svg"
   xmlns:sodipodi="http://sodipodi.sourceforge.net/DTD/sodipodi-0.dtd"
   xmlns:inkscape="http://www.inkscape.org/namespaces/inkscape"
   version="1.1"
   id="Capa_1"
   x="0px"
   y="0px"
   viewBox="0 0 720.00001 512.003"
   xml:space="preserve"
   inkscape:version="0.91 r13725"
   sodipodi:docname="tumbleweed.svg"
   width="720"
   height="512.00299"><metadata
     id="metadata95"><rdf:RDF><cc:Work
         rdf:about=""><dc:format>image/svg+xml</dc:format><dc:type
           rdf:resource="http://purl.org/dc/dcmitype/StillImage" /><dc:title></dc:title></cc:Work></rdf:RDF></metadata><defs
     id="defs93" /><sodipodi:namedview
     pagecolor="#ffffff"
     bordercolor="#666666"
     borderopacity="1"
     objecttolerance="10"
     gridtolerance="10"
     guidetolerance="10"
     inkscape:pageopacity="0"
     inkscape:pageshadow="2"
     inkscape:window-width="1600"
     inkscape:window-height="876"
     id="namedview91"
     showgrid="false"
     inkscape:zoom="0.92186961"
     inkscape:cx="386.26147"
     inkscape:cy="234.27596"
     inkscape:window-x="0"
     inkscape:window-y="24"
     inkscape:window-maximized="1"
     inkscape:current-layer="Capa_1" /><g
     id="g3423"
     transform="translate(99.797193,0)"><g
       id="g3"><path
         inkscape:connector-curvature="0"
         id="path5"
         d="m 32,264.006 c -0.242,0 -0.484,-0.012 -0.734,-0.035 -2.922,-0.266 -5.461,-2.113 -6.617,-4.812 l -24,-56 c -1.742,-4.062 0.141,-8.766 4.203,-10.504 4.023,-1.742 8.758,0.133 10.5,4.199 l 18.187,42.426 23.805,-35.711 c 2.445,-3.68 7.406,-4.672 11.094,-2.219 3.68,2.449 4.672,7.418 2.219,11.094 l -32,48 c -1.493,2.237 -4.001,3.562 -6.657,3.562 z"
         style="fill:#f7d291" /><path
         inkscape:connector-curvature="0"
         id="path7"
         d="m 57.391,141.994 c -1.688,0 -3.367,-0.535 -4.766,-1.574 -2.359,-1.75 -3.57,-4.652 -3.156,-7.559 l 8.625,-60.312 c 0.625,-4.367 4.68,-7.379 9.055,-6.785 4.375,0.625 7.414,4.676 6.789,9.051 l -6.539,45.691 38.914,-18.121 c 4.023,-1.863 8.773,-0.121 10.625,3.875 1.867,4.008 0.133,8.766 -3.875,10.633 l -52.297,24.355 c -1.071,0.5 -2.227,0.746 -3.375,0.746 z"
         style="fill:#f7d291" /><path
         inkscape:connector-curvature="0"
         id="path9"
         d="m 74.266,378.24 c -1.469,0 -2.953,-0.402 -4.289,-1.25 L 18.579,344.287 c -3.727,-2.371 -4.828,-7.316 -2.453,-11.043 2.375,-3.734 7.312,-4.824 11.047,-2.457 l 51.398,32.703 c 3.727,2.371 4.828,7.316 2.453,11.043 -1.524,2.398 -4.11,3.707 -6.758,3.707 z"
         style="fill:#f7d291" /><path
         inkscape:connector-curvature="0"
         id="path11"
         d="m 117.164,458.791 c -4.414,0 -7.992,-3.57 -8,-7.984 -0.008,-4.418 3.562,-8.008 7.984,-8.016 l 60.922,-0.129 c 0.008,0 0.008,0 0.016,0 4.414,0 7.992,3.57 8,7.984 0.008,4.418 -3.562,8.008 -7.984,8.016 l -60.922,0.129 c -0.008,0 -0.008,0 -0.016,0 z"
         style="fill:#f7d291" /><path
         inkscape:connector-curvature="0"
         id="path13"
         d="m 480.001,264.006 c -2.656,0 -5.164,-1.324 -6.656,-3.562 l -32,-48 c -2.453,-3.676 -1.461,-8.645 2.219,-11.094 3.68,-2.453 8.641,-1.461 11.094,2.219 l 23.805,35.711 18.188,-42.426 c 1.734,-4.059 6.477,-5.934 10.5,-4.199 4.062,1.738 5.945,6.441 4.203,10.504 l -24,56 c -1.156,2.699 -3.695,4.547 -6.617,4.812 -0.253,0.023 -0.494,0.035 -0.736,0.035 z"
         style="fill:#f7d291" /><path
         inkscape:connector-curvature="0"
         id="path15"
         d="m 454.609,141.994 c -1.148,0 -2.297,-0.246 -3.375,-0.746 l -52.297,-24.355 c -4.008,-1.867 -5.742,-6.625 -3.875,-10.633 1.859,-3.996 6.594,-5.738 10.625,-3.875 l 38.914,18.121 -6.539,-45.691 c -0.625,-4.375 2.414,-8.426 6.789,-9.051 4.383,-0.629 8.43,2.414 9.055,6.785 l 8.625,60.312 c 0.414,2.906 -0.797,5.809 -3.156,7.559 -1.397,1.039 -3.077,1.574 -4.766,1.574 z"
         style="fill:#f7d291" /><path
         inkscape:connector-curvature="0"
         id="path17"
         d="m 437.734,378.24 c -2.648,0 -5.234,-1.309 -6.758,-3.707 -2.375,-3.727 -1.273,-8.672 2.453,-11.043 l 51.398,-32.703 c 3.742,-2.379 8.68,-1.273 11.047,2.457 2.375,3.727 1.273,8.672 -2.453,11.043 l -51.398,32.703 c -1.334,0.848 -2.819,1.25 -4.289,1.25 z"
         style="fill:#f7d291" /><path
         inkscape:connector-curvature="0"
         id="path19"
         d="m 394.837,458.791 c -0.008,0 -0.008,0 -0.016,0 l -60.922,-0.129 c -4.422,-0.008 -7.992,-3.598 -7.984,-8.016 0.008,-4.414 3.586,-7.984 8,-7.984 0.008,0 0.008,0 0.016,0 l 60.922,0.129 c 4.422,0.008 7.992,3.598 7.984,8.016 -0.008,4.413 -3.586,7.984 -8,7.984 z"
         style="fill:#f7d291" /></g><g
       id="g21"><path
         inkscape:connector-curvature="0"
         id="path23"
         d="m 104,232.006 c -4.422,0 -8,-3.582 -8,-8 l 0,-48 c 0,-4.418 3.578,-8 8,-8 4.422,0 8,3.582 8,8 l 0,48 c 0,4.418 -3.578,8 -8,8 z"
         style="fill:#f0c382" /><path
         inkscape:connector-curvature="0"
         id="path25"
         d="m 397.009,210.006 c -0.234,0 -0.469,-0.012 -0.711,-0.031 -4.398,-0.387 -7.656,-4.27 -7.266,-8.672 l 3,-34 c 0.391,-4.395 4.18,-7.598 8.672,-7.266 4.398,0.387 7.656,4.27 7.266,8.672 l -3,34 c -0.367,4.16 -3.861,7.297 -7.961,7.297 z"
         style="fill:#f0c382" /><path
         inkscape:connector-curvature="0"
         id="path27"
         d="m 89.328,325.338 c -1.703,0 -3.43,-0.543 -4.883,-1.668 -3.5,-2.703 -4.141,-7.727 -1.438,-11.223 l 22.664,-29.332 c 2.68,-3.488 7.719,-4.16 11.219,-1.441 3.5,2.703 4.141,7.727 1.438,11.223 l -22.664,29.332 c -1.57,2.038 -3.937,3.109 -6.336,3.109 z"
         style="fill:#f0c382" /><path
         inkscape:connector-curvature="0"
         id="path29"
         d="m 409.501,370.006 c -2.203,0 -4.398,-0.906 -5.977,-2.684 l -16,-18 c -2.938,-3.305 -2.641,-8.359 0.664,-11.297 3.297,-2.93 8.352,-2.637 11.289,0.664 l 16,18 c 2.938,3.305 2.641,8.359 -0.664,11.297 -1.523,1.352 -3.421,2.02 -5.312,2.02 z"
         style="fill:#f0c382" /><path
         inkscape:connector-curvature="0"
         id="path31"
         d="m 420.001,278.51 c -0.992,0 -2,-0.188 -2.969,-0.574 l -22.5,-9 c -4.102,-1.645 -6.102,-6.297 -4.461,-10.402 1.641,-4.105 6.336,-6.082 10.398,-4.457 l 22.5,9 c 4.102,1.645 6.102,6.297 4.461,10.402 -1.249,3.124 -4.257,5.031 -7.429,5.031 z"
         style="fill:#f0c382" /></g><g
       id="g33"><path
         inkscape:connector-curvature="0"
         id="path35"
         d="m 257.493,285.006 c -1.609,0 -3.242,-0.484 -4.656,-1.496 -3.586,-2.574 -4.414,-7.574 -1.836,-11.164 l 21.5,-30 c 2.57,-3.59 7.555,-4.426 11.164,-1.844 3.586,2.574 4.414,7.574 1.836,11.164 l -21.5,30 c -1.562,2.18 -4.017,3.34 -6.508,3.34 z"
         style="fill:#f7d291" /><path
         inkscape:connector-curvature="0"
         id="path37"
         d="m 358.001,308.01 c -0.891,0 -1.805,-0.152 -2.688,-0.469 -4.164,-1.488 -6.336,-6.066 -4.844,-10.227 l 7.5,-21 c 1.477,-4.156 6.062,-6.332 10.219,-4.844 4.164,1.488 6.336,6.066 4.844,10.227 l -7.5,21 c -1.164,3.27 -4.242,5.313 -7.531,5.313 z"
         style="fill:#f7d291" /><path
         inkscape:connector-curvature="0"
         id="path39"
         d="m 341.009,429.506 c -2.547,0 -5.055,-1.215 -6.609,-3.477 l -12,-17.5 c -2.492,-3.645 -1.57,-8.621 2.078,-11.121 3.648,-2.504 8.625,-1.57 11.125,2.074 l 12,17.5 c 2.492,3.645 1.57,8.621 -2.078,11.121 -1.383,0.949 -2.961,1.403 -4.516,1.403 z"
         style="fill:#f7d291" /><path
         inkscape:connector-curvature="0"
         id="path41"
         d="m 162.992,420.006 c -1.68,0 -3.383,-0.531 -4.828,-1.625 -3.516,-2.672 -4.211,-7.691 -1.539,-11.211 l 11,-14.5 c 2.672,-3.516 7.672,-4.219 11.211,-1.539 3.516,2.672 4.211,7.691 1.539,11.211 l -11,14.5 c -1.577,2.074 -3.961,3.164 -6.383,3.164 z"
         style="fill:#f7d291" /><path
         inkscape:connector-curvature="0"
         id="path43"
         d="m 148.501,320.506 c -2.117,0 -4.234,-0.836 -5.805,-2.5 l -9,-9.5 c -3.039,-3.207 -2.906,-8.27 0.305,-11.309 3.211,-3.027 8.273,-2.906 11.305,0.309 l 9,9.5 c 3.039,3.207 2.906,8.27 -0.305,11.309 -1.548,1.464 -3.524,2.191 -5.5,2.191 z"
         style="fill:#f7d291" /></g><g
       id="g45"><path
         inkscape:connector-curvature="0"
         id="path47"
         d="m 207.344,266.006 c -2.414,0 -4.805,-1.09 -6.375,-3.16 l -25.336,-33.332 c -2.672,-3.516 -1.992,-8.535 1.523,-11.207 3.531,-2.68 8.547,-1.988 11.211,1.527 l 25.336,33.332 c 2.672,3.516 1.992,8.535 -1.523,11.207 -1.453,1.101 -3.149,1.633 -4.836,1.633 z"
         style="fill:#f0c382" /><path
         inkscape:connector-curvature="0"
         id="path49"
         d="m 226.656,380.006 c -1.656,0 -3.32,-0.512 -4.758,-1.57 -3.547,-2.633 -4.289,-7.641 -1.664,-11.191 l 13.336,-18 c 2.633,-3.547 7.633,-4.289 11.195,-1.668 3.547,2.633 4.289,7.641 1.664,11.191 l -13.336,18 c -1.569,2.117 -3.984,3.238 -6.437,3.238 z"
         style="fill:#f0c382" /><path
         inkscape:connector-curvature="0"
         id="path51"
         d="m 235.992,428.674 c -3.766,0 -7.117,-2.668 -7.852,-6.504 -0.828,-4.34 2.023,-8.527 6.359,-9.355 l 14,-2.668 c 4.414,-0.797 8.531,2.027 9.359,6.363 0.828,4.34 -2.023,8.527 -6.359,9.355 l -14,2.668 c -0.507,0.094 -1.015,0.141 -1.507,0.141 z"
         style="fill:#f0c382" /></g><path
       inkscape:connector-curvature="0"
       id="path53"
       d="m 295.993,464.006 c -1.492,0 -2.992,-0.414 -4.336,-1.285 -139.734,-90.414 -75.836,-271.629 -75.172,-273.449 1.508,-4.148 6.102,-6.273 10.242,-4.785 4.156,1.508 6.297,6.098 4.797,10.25 -0.156,0.43 -15.578,43.645 -14.516,96.609 1.398,69.93 29.438,123.066 83.336,157.945 3.711,2.398 4.773,7.352 2.375,11.062 -1.53,2.364 -4.101,3.653 -6.726,3.653 z"
       style="fill:#e3aa75" /><path
       inkscape:connector-curvature="0"
       id="path55"
       d="m 256.001,472.006 c -66.172,0 -120,-53.832 -120,-120 0,-24.687 7.438,-48.402 21.516,-68.578 2.523,-3.625 7.5,-4.523 11.141,-1.984 3.625,2.531 4.508,7.516 1.984,11.141 -12.195,17.477 -18.641,38.023 -18.641,59.422 0,57.348 46.656,104 104,104 57.344,0 104,-46.652 104,-104 0,-57.348 -46.656,-104 -104,-104 -4.422,0 -8,-3.582 -8,-8 0,-4.418 3.578,-8 8,-8 66.172,0 120,53.832 120,120 0,66.168 -53.828,119.999 -120,119.999 z"
       style="fill:#f0c382" /><path
       inkscape:connector-curvature="0"
       id="path57"
       d="m 256.001,472.006 c -97.047,0 -176,-78.953 -176,-176 0,-87.02 64.859,-161.914 150.867,-174.215 4.375,-0.66 8.43,2.414 9.055,6.785 0.625,4.375 -2.414,8.426 -6.789,9.051 -78.18,11.184 -137.133,79.27 -137.133,158.379 0,88.223 71.773,160 160,160 88.227,0 160,-71.777 160,-160 0,-56.625 -28.992,-107.898 -77.555,-137.156 -3.789,-2.277 -5.008,-7.195 -2.727,-10.98 2.273,-3.785 7.195,-5 10.977,-2.723 53.414,32.18 85.305,88.574 85.305,150.859 0,97.047 -78.953,176 -176,176 z"
       style="fill:#e3aa75" /><path
       inkscape:connector-curvature="0"
       id="path59"
       d="m 256.001,472.006 c -127.922,0 -232,-104.074 -232,-232 0,-62.863 24.727,-121.715 69.633,-165.715 3.164,-3.086 8.227,-3.043 11.312,0.117 3.094,3.156 3.047,8.219 -0.109,11.312 -41.812,40.965 -64.836,95.758 -64.836,154.285 0,119.102 96.898,216 216,216 119.102,0 216,-96.898 216,-216 0,-76.437 -39.141,-145.656 -104.695,-185.156 -3.789,-2.281 -5.008,-7.195 -2.727,-10.98 2.273,-3.785 7.203,-5.004 10.977,-2.723 70.414,42.418 112.445,116.762 112.445,198.859 0,127.926 -104.078,232.001 -232,232.001 z"
       style="fill:#f0c382" /></g><g
     id="g61" /><g
     id="g63" /><g
     id="g65" /><g
     id="g67" /><g
     id="g69" /><g
     id="g71" /><g
     id="g73" /><g
     id="g75" /><g
     id="g77" /><g
     id="g79" /><g
     id="g81" /><g
     id="g83" /><g
     id="g85" /><g
     id="g87" /><g
     id="g89" /><path
     style="fill:none;fill-rule:evenodd;stroke:#f0c382;stroke-width:13;stroke-linecap:round;stroke-linejoin:miter;stroke-miterlimit:4;stroke-dasharray:none;stroke-opacity:1"
     d="m 21.747881,494.85565 112.323089,0"
     id="path3454"
     inkscape:connector-curvature="0" /><path
     inkscape:connector-curvature="0"
     id="path4256"
     d="m 442.68736,491.3927 63.78337,0"
     style="fill:none;fill-rule:evenodd;stroke:#f0c382;stroke-width:13;stroke-linecap:round;stroke-linejoin:miter;stroke-miterlimit:4;stroke-dasharray:none;stroke-opacity:1" /><path
     style="fill:none;fill-rule:evenodd;stroke:#f0c382;stroke-width:13;stroke-linecap:round;stroke-linejoin:miter;stroke-miterlimit:4;stroke-dasharray:none;stroke-opacity:1"
     d="m 573.94236,481.62993 63.78337,0"
     id="path4258"
     inkscape:connector-curvature="0" /><path
     inkscape:connector-curvature="0"
     id="path4260"
     d="m 539.55034,432.81606 159.68613,0"
     style="fill:none;fill-rule:evenodd;stroke:#f7d291;stroke-width:13;stroke-linecap:round;stroke-linejoin:miter;stroke-miterlimit:4;stroke-dasharray:none;stroke-opacity:1" /><path
     style="fill:none;fill-rule:evenodd;stroke:#e3aa75;stroke-width:13;stroke-linecap:round;stroke-linejoin:miter;stroke-miterlimit:4;stroke-dasharray:none;stroke-opacity:1"
     d="m 140.71741,476.20615 143.78794,0"
     id="path4262"
     inkscape:connector-curvature="0" /><path
     style="fill:none;fill-rule:evenodd;stroke:#f7d291;stroke-width:13.00000095;stroke-linecap:round;stroke-linejoin:miter;stroke-miterlimit:4;stroke-dasharray:none;stroke-opacity:1"
     d="m 33.768343,437.15509 43.108035,0"
     id="path4264"
     inkscape:connector-curvature="0" /><circle
     style="fill:none;stroke:#f7d291;stroke-width:13;stroke-linecap:round;stroke-miterlimit:4;stroke-dasharray:none;stroke-opacity:1"
     id="path4266"
     cx="666.03784"
     cy="417.62955"
     r="13.017025" /><circle
     r="16.813658"
     cy="458.62549"
     cx="184.1926"
     id="circle4268"
     style="fill:none;stroke:#e3aa75;stroke-width:13;stroke-linecap:round;stroke-miterlimit:4;stroke-dasharray:none;stroke-opacity:1" /><circle
     style="fill:none;stroke:#e3aa75;stroke-width:13;stroke-linecap:round;stroke-miterlimit:4;stroke-dasharray:none;stroke-opacity:1"
     id="circle4270"
     cx="131.58212"
     cy="466.76114"
     r="9.7627687" /></svg>